<mxfile host="app.diagrams.net" modified="2021-08-16T13:36:54.331Z" agent="5.0 (Windows NT 10.0; Win64; x64) AppleWebKit/537.36 (KHTML, like Gecko) Chrome/92.0.4515.131 Safari/537.36" etag="LICh2Kip9xLIEa7ZCmcb" version="14.9.6" type="github">
  <diagram id="O0SUndDZ15sDxAgVkJeJ" name="Page-1">
    <mxGraphModel dx="1422" dy="737" grid="1" gridSize="10" guides="1" tooltips="1" connect="1" arrows="1" fold="1" page="1" pageScale="1" pageWidth="827" pageHeight="1169" math="0" shadow="0">
      <root>
        <mxCell id="0" />
        <mxCell id="1" parent="0" />
        <mxCell id="9TR4K2_9VISACxm8bWBB-19" style="edgeStyle=orthogonalEdgeStyle;rounded=0;orthogonalLoop=1;jettySize=auto;html=1;exitX=0.5;exitY=1;exitDx=0;exitDy=0;entryX=0.5;entryY=0;entryDx=0;entryDy=0;" edge="1" parent="1" source="9TR4K2_9VISACxm8bWBB-1" target="9TR4K2_9VISACxm8bWBB-2">
          <mxGeometry relative="1" as="geometry" />
        </mxCell>
        <mxCell id="9TR4K2_9VISACxm8bWBB-1" value="начало" style="ellipse;whiteSpace=wrap;html=1;aspect=fixed;" vertex="1" parent="1">
          <mxGeometry x="400" y="60" width="80" height="80" as="geometry" />
        </mxCell>
        <mxCell id="9TR4K2_9VISACxm8bWBB-18" style="edgeStyle=orthogonalEdgeStyle;rounded=0;orthogonalLoop=1;jettySize=auto;html=1;entryX=0.5;entryY=0;entryDx=0;entryDy=0;" edge="1" parent="1" source="9TR4K2_9VISACxm8bWBB-2" target="9TR4K2_9VISACxm8bWBB-3">
          <mxGeometry relative="1" as="geometry" />
        </mxCell>
        <mxCell id="9TR4K2_9VISACxm8bWBB-2" value="объявляю переменные a b c" style="whiteSpace=wrap;html=1;aspect=fixed;" vertex="1" parent="1">
          <mxGeometry x="400" y="180" width="80" height="80" as="geometry" />
        </mxCell>
        <mxCell id="9TR4K2_9VISACxm8bWBB-13" style="edgeStyle=orthogonalEdgeStyle;rounded=0;orthogonalLoop=1;jettySize=auto;html=1;exitX=1;exitY=0.5;exitDx=0;exitDy=0;entryX=0.5;entryY=0;entryDx=0;entryDy=0;" edge="1" parent="1" source="9TR4K2_9VISACxm8bWBB-3" target="9TR4K2_9VISACxm8bWBB-5">
          <mxGeometry relative="1" as="geometry" />
        </mxCell>
        <mxCell id="9TR4K2_9VISACxm8bWBB-14" style="edgeStyle=orthogonalEdgeStyle;rounded=0;orthogonalLoop=1;jettySize=auto;html=1;exitX=0;exitY=0.5;exitDx=0;exitDy=0;" edge="1" parent="1" source="9TR4K2_9VISACxm8bWBB-3" target="9TR4K2_9VISACxm8bWBB-4">
          <mxGeometry relative="1" as="geometry" />
        </mxCell>
        <mxCell id="9TR4K2_9VISACxm8bWBB-3" value="b &amp;lt; a" style="rhombus;whiteSpace=wrap;html=1;" vertex="1" parent="1">
          <mxGeometry x="400" y="300" width="80" height="80" as="geometry" />
        </mxCell>
        <mxCell id="9TR4K2_9VISACxm8bWBB-15" style="edgeStyle=orthogonalEdgeStyle;rounded=0;orthogonalLoop=1;jettySize=auto;html=1;exitX=1;exitY=0.5;exitDx=0;exitDy=0;entryX=0;entryY=0.5;entryDx=0;entryDy=0;" edge="1" parent="1" source="9TR4K2_9VISACxm8bWBB-4" target="9TR4K2_9VISACxm8bWBB-9">
          <mxGeometry relative="1" as="geometry" />
        </mxCell>
        <mxCell id="9TR4K2_9VISACxm8bWBB-16" style="edgeStyle=orthogonalEdgeStyle;rounded=0;orthogonalLoop=1;jettySize=auto;html=1;exitX=0.5;exitY=1;exitDx=0;exitDy=0;entryX=0.5;entryY=0;entryDx=0;entryDy=0;" edge="1" parent="1" source="9TR4K2_9VISACxm8bWBB-4" target="9TR4K2_9VISACxm8bWBB-8">
          <mxGeometry relative="1" as="geometry" />
        </mxCell>
        <mxCell id="9TR4K2_9VISACxm8bWBB-4" value="c &amp;lt; a&amp;nbsp;" style="rhombus;whiteSpace=wrap;html=1;" vertex="1" parent="1">
          <mxGeometry x="200" y="400" width="80" height="80" as="geometry" />
        </mxCell>
        <mxCell id="9TR4K2_9VISACxm8bWBB-12" style="edgeStyle=orthogonalEdgeStyle;rounded=0;orthogonalLoop=1;jettySize=auto;html=1;exitX=1;exitY=0.5;exitDx=0;exitDy=0;entryX=0;entryY=0.5;entryDx=0;entryDy=0;" edge="1" parent="1" source="9TR4K2_9VISACxm8bWBB-5" target="9TR4K2_9VISACxm8bWBB-11">
          <mxGeometry relative="1" as="geometry" />
        </mxCell>
        <mxCell id="9TR4K2_9VISACxm8bWBB-17" style="edgeStyle=orthogonalEdgeStyle;rounded=0;orthogonalLoop=1;jettySize=auto;html=1;exitX=0.5;exitY=1;exitDx=0;exitDy=0;" edge="1" parent="1" source="9TR4K2_9VISACxm8bWBB-5" target="9TR4K2_9VISACxm8bWBB-10">
          <mxGeometry relative="1" as="geometry" />
        </mxCell>
        <mxCell id="9TR4K2_9VISACxm8bWBB-5" value="c &amp;lt; b" style="rhombus;whiteSpace=wrap;html=1;" vertex="1" parent="1">
          <mxGeometry x="560" y="400" width="80" height="80" as="geometry" />
        </mxCell>
        <mxCell id="9TR4K2_9VISACxm8bWBB-8" value="a" style="rounded=0;whiteSpace=wrap;html=1;" vertex="1" parent="1">
          <mxGeometry x="180" y="555" width="120" height="60" as="geometry" />
        </mxCell>
        <mxCell id="9TR4K2_9VISACxm8bWBB-9" value="c" style="rounded=0;whiteSpace=wrap;html=1;" vertex="1" parent="1">
          <mxGeometry x="340" y="410" width="120" height="60" as="geometry" />
        </mxCell>
        <mxCell id="9TR4K2_9VISACxm8bWBB-10" value="b" style="rounded=0;whiteSpace=wrap;html=1;" vertex="1" parent="1">
          <mxGeometry x="540" y="555" width="120" height="60" as="geometry" />
        </mxCell>
        <mxCell id="9TR4K2_9VISACxm8bWBB-11" value="c" style="rounded=0;whiteSpace=wrap;html=1;" vertex="1" parent="1">
          <mxGeometry x="700" y="410" width="120" height="60" as="geometry" />
        </mxCell>
        <mxCell id="9TR4K2_9VISACxm8bWBB-20" value="true" style="text;html=1;strokeColor=none;fillColor=none;align=center;verticalAlign=middle;whiteSpace=wrap;rounded=0;" vertex="1" parent="1">
          <mxGeometry x="290" y="310" width="40" height="20" as="geometry" />
        </mxCell>
        <mxCell id="9TR4K2_9VISACxm8bWBB-21" value="false" style="text;html=1;align=center;verticalAlign=middle;resizable=0;points=[];autosize=1;strokeColor=none;" vertex="1" parent="1">
          <mxGeometry x="520" y="300" width="40" height="20" as="geometry" />
        </mxCell>
        <mxCell id="9TR4K2_9VISACxm8bWBB-22" value="false" style="text;html=1;align=center;verticalAlign=middle;resizable=0;points=[];autosize=1;strokeColor=none;" vertex="1" parent="1">
          <mxGeometry x="650" y="410" width="40" height="20" as="geometry" />
        </mxCell>
        <mxCell id="9TR4K2_9VISACxm8bWBB-23" value="true" style="text;html=1;align=center;verticalAlign=middle;resizable=0;points=[];autosize=1;strokeColor=none;" vertex="1" parent="1">
          <mxGeometry x="610" y="500" width="40" height="20" as="geometry" />
        </mxCell>
        <mxCell id="9TR4K2_9VISACxm8bWBB-24" value="true" style="text;html=1;align=center;verticalAlign=middle;resizable=0;points=[];autosize=1;strokeColor=none;" vertex="1" parent="1">
          <mxGeometry x="250" y="510" width="40" height="20" as="geometry" />
        </mxCell>
        <mxCell id="9TR4K2_9VISACxm8bWBB-25" value="false" style="text;html=1;align=center;verticalAlign=middle;resizable=0;points=[];autosize=1;strokeColor=none;" vertex="1" parent="1">
          <mxGeometry x="270" y="400" width="40" height="20" as="geometry" />
        </mxCell>
      </root>
    </mxGraphModel>
  </diagram>
</mxfile>
